<svg width="128" height="128" viewBox="0 0 128 128" fill="none" xmlns="http://www.w3.org/2000/svg">
<g filter="url(#filter0_d_1_3)">
<path d="M64.1509 10C64.1509 43 50.5 47.5 64.1509 59.5C78 47.5 64.1509 43 64.1509 10Z" fill="white"/>
<path d="M64.1509 10C64.1509 43 50.5 47.5 64.1509 59.5C78 47.5 64.1509 43 64.1509 10Z" stroke="black"/>
</g>
<g filter="url(#filter1_d_1_3)">
<path d="M11 64.043C44 64.043 48.5 77.6938 60.5 64.043C48.5 50.1938 44 64.043 11 64.043Z" fill="white"/>
<path d="M11 64.043C44 64.043 48.5 77.6938 60.5 64.043C48.5 50.1938 44 64.043 11 64.043Z" stroke="black"/>
</g>
<g filter="url(#filter2_d_1_3)">
<path d="M117.5 63.957C84.5 63.957 80 50.3062 68 63.957C80 77.8062 84.5 63.957 117.5 63.957Z" fill="white"/>
<path d="M117.5 63.957C84.5 63.957 80 50.3062 68 63.957C80 77.8062 84.5 63.957 117.5 63.957Z" stroke="black"/>
</g>
<g filter="url(#filter3_d_1_3)">
<path d="M64.1552 117C64.1552 84 77.806 79.5 64.1552 67.5C50.306 79.5 64.1552 84 64.1552 117Z" fill="white"/>
<path d="M64.1552 117C64.1552 84 77.806 79.5 64.1552 67.5C50.306 79.5 64.1552 84 64.1552 117Z" stroke="black"/>
</g>
<defs>
<filter id="filter0_d_1_3" x="53.5839" y="10" width="21.222" height="58.1636" filterUnits="userSpaceOnUse" color-interpolation-filters="sRGB">
<feFlood flood-opacity="0" result="BackgroundImageFix"/>
<feColorMatrix in="SourceAlpha" type="matrix" values="0 0 0 0 0 0 0 0 0 0 0 0 0 0 0 0 0 0 127 0" result="hardAlpha"/>
<feOffset dy="4"/>
<feGaussianBlur stdDeviation="2"/>
<feComposite in2="hardAlpha" operator="out"/>
<feColorMatrix type="matrix" values="0 0 0 0 0 0 0 0 0 0 0 0 0 0 0 0 0 0 0.25 0"/>
<feBlend mode="normal" in2="BackgroundImageFix" result="effect1_dropShadow_1_3"/>
<feBlend mode="normal" in="SourceGraphic" in2="effect1_dropShadow_1_3" result="shape"/>
</filter>
<filter id="filter1_d_1_3" x="7" y="57.3879" width="58.1636" height="21.222" filterUnits="userSpaceOnUse" color-interpolation-filters="sRGB">
<feFlood flood-opacity="0" result="BackgroundImageFix"/>
<feColorMatrix in="SourceAlpha" type="matrix" values="0 0 0 0 0 0 0 0 0 0 0 0 0 0 0 0 0 0 127 0" result="hardAlpha"/>
<feOffset dy="4"/>
<feGaussianBlur stdDeviation="2"/>
<feComposite in2="hardAlpha" operator="out"/>
<feColorMatrix type="matrix" values="0 0 0 0 0 0 0 0 0 0 0 0 0 0 0 0 0 0 0.25 0"/>
<feBlend mode="normal" in2="BackgroundImageFix" result="effect1_dropShadow_1_3"/>
<feBlend mode="normal" in="SourceGraphic" in2="effect1_dropShadow_1_3" result="shape"/>
</filter>
<filter id="filter2_d_1_3" x="63.3364" y="57.3901" width="58.1636" height="21.222" filterUnits="userSpaceOnUse" color-interpolation-filters="sRGB">
<feFlood flood-opacity="0" result="BackgroundImageFix"/>
<feColorMatrix in="SourceAlpha" type="matrix" values="0 0 0 0 0 0 0 0 0 0 0 0 0 0 0 0 0 0 127 0" result="hardAlpha"/>
<feOffset dy="4"/>
<feGaussianBlur stdDeviation="2"/>
<feComposite in2="hardAlpha" operator="out"/>
<feColorMatrix type="matrix" values="0 0 0 0 0 0 0 0 0 0 0 0 0 0 0 0 0 0 0.25 0"/>
<feBlend mode="normal" in2="BackgroundImageFix" result="effect1_dropShadow_1_3"/>
<feBlend mode="normal" in="SourceGraphic" in2="effect1_dropShadow_1_3" result="shape"/>
</filter>
<filter id="filter3_d_1_3" x="53.5001" y="66.8364" width="21.222" height="58.1636" filterUnits="userSpaceOnUse" color-interpolation-filters="sRGB">
<feFlood flood-opacity="0" result="BackgroundImageFix"/>
<feColorMatrix in="SourceAlpha" type="matrix" values="0 0 0 0 0 0 0 0 0 0 0 0 0 0 0 0 0 0 127 0" result="hardAlpha"/>
<feOffset dy="4"/>
<feGaussianBlur stdDeviation="2"/>
<feComposite in2="hardAlpha" operator="out"/>
<feColorMatrix type="matrix" values="0 0 0 0 0 0 0 0 0 0 0 0 0 0 0 0 0 0 0.25 0"/>
<feBlend mode="normal" in2="BackgroundImageFix" result="effect1_dropShadow_1_3"/>
<feBlend mode="normal" in="SourceGraphic" in2="effect1_dropShadow_1_3" result="shape"/>
</filter>
</defs>
</svg>
