<svg width="128" height="128" viewBox="0 0 128 128" fill="none" xmlns="http://www.w3.org/2000/svg">
<path d="M14 10.5C12.067 10.5 10.5 12.067 10.5 14V39V51.5C10.5 53.433 12.067 55 14 55H51.5C53.433 55 55 53.433 55 51.5V14C55 12.067 53.433 10.5 51.5 10.5H39H14ZM10.5 114C10.5 115.933 12.067 117.5 14 117.5H39H51.5C53.433 117.5 55 115.933 55 114V76.5C55 74.567 53.433 73 51.5 73H14C12.067 73 10.5 74.567 10.5 76.5V89V114ZM117.5 14C117.5 12.067 115.933 10.5 114 10.5H89H76.5C74.567 10.5 73 12.067 73 14V51.5C73 53.433 74.567 55 76.5 55H114C115.933 55 117.5 53.433 117.5 51.5V39V14ZM114 117.5C115.933 117.5 117.5 115.933 117.5 114V89V76.5C117.5 74.567 115.933 73 114 73H76.5C74.567 73 73 74.567 73 76.5V114C73 115.933 74.567 117.5 76.5 117.5H89H114Z" stroke="white" stroke-width="7" stroke-linejoin="round"/>
</svg>
